<svg viewBox="0 0 900 340" xmlns="http://www.w3.org/2000/svg">
<defs>
        <linearGradient id="bg-lien-minh" x1="0" y1="0" x2="1" y2="1">
            <stop offset="0%" stop-color="#12151D"/>
            <stop offset="100%" stop-color="#1E2330"/>
        </linearGradient>
        <linearGradient id="accent-lien-minh" x1="0" y1="0" x2="1" y2="0">
            <stop offset="0%" stop-color="#0AC8B9"/>
            <stop offset="100%" stop-color="#C89B3C"/>
        </linearGradient>
        <linearGradient id="cell-lien-minh" x1="0" y1="0" x2="1" y2="1">
            <stop offset="0%" stop-color="#0AC8B9" stop-opacity="0.35"/>
            <stop offset="100%" stop-color="#C89B3C" stop-opacity="0.20"/>
        </linearGradient>
    </defs>
<rect width="900" height="340" fill="url(#bg-lien-minh)"/>
<polygon points="-260,340 -200,340 -100,0 -160,0" fill="#0AC8B9" opacity="0.05"/>
<polygon points="-130,340 -70,340 30,0 -30,0" fill="#0AC8B9" opacity="0.05"/>
<polygon points="0,340 60,340 160,0 100,0" fill="#0AC8B9" opacity="0.05"/>
<polygon points="130,340 190,340 290,0 230,0" fill="#0AC8B9" opacity="0.05"/>
<polygon points="260,340 320,340 420,0 360,0" fill="#0AC8B9" opacity="0.05"/>
<polygon points="390,340 450,340 550,0 490,0" fill="#0AC8B9" opacity="0.05"/>
<polygon points="520,340 580,340 680,0 620,0" fill="#0AC8B9" opacity="0.05"/>
<polygon points="650,340 710,340 810,0 750,0" fill="#0AC8B9" opacity="0.05"/>
<polygon points="780,340 840,340 940,0 880,0" fill="#0AC8B9" opacity="0.05"/>
<polygon points="910,340 970,340 1070,0 1010,0" fill="#0AC8B9" opacity="0.05"/>
<rect x="14" y="14" width="190" height="46" rx="10" fill="#0A0C11" fill-opacity="0.72" stroke="url(#accent-lien-minh)" stroke-width="1.4"/>
<circle cx="40" cy="37" r="13" fill="url(#accent-lien-minh)"/>
<text x="40" y="43" font-size="15" text-anchor="middle" font-family="Arial, sans-serif">⚔️</text>
<text x="62" y="34" font-size="11" fill="#8D93A6" font-family="Arial, sans-serif">Cấp</text>
<text x="62" y="51" font-size="17" fill="#E9EBF3" font-weight="bold" font-family="Arial, sans-serif">210</text>
<rect x="218" y="14" width="190" height="46" rx="10" fill="#0A0C11" fill-opacity="0.72" stroke="url(#accent-lien-minh)" stroke-width="1.4"/>
<circle cx="244" cy="37" r="13" fill="url(#accent-lien-minh)"/>
<text x="244" y="43" font-size="15" text-anchor="middle" font-family="Arial, sans-serif">🛡️</text>
<text x="266" y="34" font-size="11" fill="#8D93A6" font-family="Arial, sans-serif">RP</text>
<text x="266" y="51" font-size="17" fill="#E9EBF3" font-weight="bold" font-family="Arial, sans-serif">3200</text>
<rect x="422" y="14" width="190" height="46" rx="10" fill="#0A0C11" fill-opacity="0.72" stroke="url(#accent-lien-minh)" stroke-width="1.4"/>
<circle cx="448" cy="37" r="13" fill="url(#accent-lien-minh)"/>
<text x="448" y="43" font-size="15" text-anchor="middle" font-family="Arial, sans-serif">🔥</text>
<text x="470" y="34" font-size="11" fill="#8D93A6" font-family="Arial, sans-serif">Thắng</text>
<text x="470" y="51" font-size="17" fill="#E9EBF3" font-weight="bold" font-family="Arial, sans-serif">55.1%</text>
<rect x="626" y="14" width="190" height="46" rx="10" fill="#0A0C11" fill-opacity="0.72" stroke="url(#accent-lien-minh)" stroke-width="1.4"/>
<circle cx="652" cy="37" r="13" fill="url(#accent-lien-minh)"/>
<text x="652" y="43" font-size="15" text-anchor="middle" font-family="Arial, sans-serif">⚡</text>
<text x="674" y="34" font-size="11" fill="#8D93A6" font-family="Arial, sans-serif">Tướng</text>
<text x="674" y="51" font-size="17" fill="#E9EBF3" font-weight="bold" font-family="Arial, sans-serif">180</text>
<rect x="24.0" y="78.0" width="72" height="72" rx="10" fill="url(#cell-lien-minh)" stroke="#0AC8B9" stroke-opacity="0.35" stroke-width="1"/>
<text x="60.0" y="123.0" font-size="30" text-anchor="middle" font-family="Arial, sans-serif">🛡️</text>
<rect x="102.0" y="78.0" width="72" height="72" rx="10" fill="url(#cell-lien-minh)" stroke="#0AC8B9" stroke-opacity="0.35" stroke-width="1"/>
<text x="138.0" y="123.0" font-size="30" text-anchor="middle" font-family="Arial, sans-serif">⚡</text>
<rect x="180.0" y="78.0" width="72" height="72" rx="10" fill="url(#cell-lien-minh)" stroke="#0AC8B9" stroke-opacity="0.35" stroke-width="1"/>
<text x="216.0" y="123.0" font-size="30" text-anchor="middle" font-family="Arial, sans-serif">⚡</text>
<rect x="258.0" y="78.0" width="72" height="72" rx="10" fill="url(#cell-lien-minh)" stroke="#0AC8B9" stroke-opacity="0.35" stroke-width="1"/>
<text x="294.0" y="123.0" font-size="30" text-anchor="middle" font-family="Arial, sans-serif">🗡️</text>
<rect x="336.0" y="78.0" width="72" height="72" rx="10" fill="url(#cell-lien-minh)" stroke="#0AC8B9" stroke-opacity="0.35" stroke-width="1"/>
<text x="372.0" y="123.0" font-size="30" text-anchor="middle" font-family="Arial, sans-serif">🌟</text>
<rect x="414.0" y="78.0" width="72" height="72" rx="10" fill="url(#cell-lien-minh)" stroke="#0AC8B9" stroke-opacity="0.35" stroke-width="1"/>
<text x="450.0" y="123.0" font-size="30" text-anchor="middle" font-family="Arial, sans-serif">🌟</text>
<rect x="492.0" y="78.0" width="72" height="72" rx="10" fill="url(#cell-lien-minh)" stroke="#0AC8B9" stroke-opacity="0.35" stroke-width="1"/>
<text x="528.0" y="123.0" font-size="30" text-anchor="middle" font-family="Arial, sans-serif">🔱</text>
<rect x="570.0" y="78.0" width="72" height="72" rx="10" fill="url(#cell-lien-minh)" stroke="#0AC8B9" stroke-opacity="0.35" stroke-width="1"/>
<text x="606.0" y="123.0" font-size="30" text-anchor="middle" font-family="Arial, sans-serif">⚡</text>
<rect x="648.0" y="78.0" width="72" height="72" rx="10" fill="url(#cell-lien-minh)" stroke="#0AC8B9" stroke-opacity="0.35" stroke-width="1"/>
<text x="684.0" y="123.0" font-size="30" text-anchor="middle" font-family="Arial, sans-serif">🐲</text>
<rect x="726.0" y="78.0" width="72" height="72" rx="10" fill="url(#cell-lien-minh)" stroke="#0AC8B9" stroke-opacity="0.35" stroke-width="1"/>
<text x="762.0" y="123.0" font-size="30" text-anchor="middle" font-family="Arial, sans-serif">🔱</text>
<rect x="804.0" y="78.0" width="72" height="72" rx="10" fill="url(#cell-lien-minh)" stroke="#0AC8B9" stroke-opacity="0.35" stroke-width="1"/>
<text x="840.0" y="123.0" font-size="30" text-anchor="middle" font-family="Arial, sans-serif">⚡</text>
<rect x="24.0" y="156.0" width="72" height="72" rx="10" fill="url(#cell-lien-minh)" stroke="#0AC8B9" stroke-opacity="0.35" stroke-width="1"/>
<text x="60.0" y="201.0" font-size="30" text-anchor="middle" font-family="Arial, sans-serif">🐲</text>
<rect x="102.0" y="156.0" width="72" height="72" rx="10" fill="url(#cell-lien-minh)" stroke="#0AC8B9" stroke-opacity="0.35" stroke-width="1"/>
<text x="138.0" y="201.0" font-size="30" text-anchor="middle" font-family="Arial, sans-serif">🔥</text>
<rect x="180.0" y="156.0" width="72" height="72" rx="10" fill="url(#cell-lien-minh)" stroke="#0AC8B9" stroke-opacity="0.35" stroke-width="1"/>
<text x="216.0" y="201.0" font-size="30" text-anchor="middle" font-family="Arial, sans-serif">🛡️</text>
<rect x="258.0" y="156.0" width="72" height="72" rx="10" fill="url(#cell-lien-minh)" stroke="#0AC8B9" stroke-opacity="0.35" stroke-width="1"/>
<text x="294.0" y="201.0" font-size="30" text-anchor="middle" font-family="Arial, sans-serif">⚔️</text>
<rect x="336.0" y="156.0" width="72" height="72" rx="10" fill="url(#cell-lien-minh)" stroke="#0AC8B9" stroke-opacity="0.35" stroke-width="1"/>
<text x="372.0" y="201.0" font-size="30" text-anchor="middle" font-family="Arial, sans-serif">🔥</text>
<rect x="414.0" y="156.0" width="72" height="72" rx="10" fill="url(#cell-lien-minh)" stroke="#0AC8B9" stroke-opacity="0.35" stroke-width="1"/>
<text x="450.0" y="201.0" font-size="30" text-anchor="middle" font-family="Arial, sans-serif">💠</text>
<rect x="492.0" y="156.0" width="72" height="72" rx="10" fill="url(#cell-lien-minh)" stroke="#0AC8B9" stroke-opacity="0.35" stroke-width="1"/>
<text x="528.0" y="201.0" font-size="30" text-anchor="middle" font-family="Arial, sans-serif">🐲</text>
<rect x="570.0" y="156.0" width="72" height="72" rx="10" fill="url(#cell-lien-minh)" stroke="#0AC8B9" stroke-opacity="0.35" stroke-width="1"/>
<text x="606.0" y="201.0" font-size="30" text-anchor="middle" font-family="Arial, sans-serif">🏹</text>
<rect x="648.0" y="156.0" width="72" height="72" rx="10" fill="url(#cell-lien-minh)" stroke="#0AC8B9" stroke-opacity="0.35" stroke-width="1"/>
<text x="684.0" y="201.0" font-size="30" text-anchor="middle" font-family="Arial, sans-serif">💠</text>
<rect x="726.0" y="156.0" width="72" height="72" rx="10" fill="url(#cell-lien-minh)" stroke="#0AC8B9" stroke-opacity="0.35" stroke-width="1"/>
<text x="762.0" y="201.0" font-size="30" text-anchor="middle" font-family="Arial, sans-serif">🔱</text>
<rect x="804.0" y="156.0" width="72" height="72" rx="10" fill="url(#cell-lien-minh)" stroke="#0AC8B9" stroke-opacity="0.35" stroke-width="1"/>
<text x="840.0" y="201.0" font-size="30" text-anchor="middle" font-family="Arial, sans-serif">💠</text>
<rect x="24.0" y="234.0" width="72" height="72" rx="10" fill="url(#cell-lien-minh)" stroke="#0AC8B9" stroke-opacity="0.35" stroke-width="1"/>
<text x="60.0" y="279.0" font-size="30" text-anchor="middle" font-family="Arial, sans-serif">🐲</text>
<rect x="102.0" y="234.0" width="72" height="72" rx="10" fill="url(#cell-lien-minh)" stroke="#0AC8B9" stroke-opacity="0.35" stroke-width="1"/>
<text x="138.0" y="279.0" font-size="30" text-anchor="middle" font-family="Arial, sans-serif">🗡️</text>
<rect x="180.0" y="234.0" width="72" height="72" rx="10" fill="url(#cell-lien-minh)" stroke="#0AC8B9" stroke-opacity="0.35" stroke-width="1"/>
<text x="216.0" y="279.0" font-size="30" text-anchor="middle" font-family="Arial, sans-serif">⚡</text>
<rect x="258.0" y="234.0" width="72" height="72" rx="10" fill="url(#cell-lien-minh)" stroke="#0AC8B9" stroke-opacity="0.35" stroke-width="1"/>
<text x="294.0" y="279.0" font-size="30" text-anchor="middle" font-family="Arial, sans-serif">🔥</text>
<rect x="336.0" y="234.0" width="72" height="72" rx="10" fill="url(#cell-lien-minh)" stroke="#0AC8B9" stroke-opacity="0.35" stroke-width="1"/>
<text x="372.0" y="279.0" font-size="30" text-anchor="middle" font-family="Arial, sans-serif">🔥</text>
<rect x="414.0" y="234.0" width="72" height="72" rx="10" fill="url(#cell-lien-minh)" stroke="#0AC8B9" stroke-opacity="0.35" stroke-width="1"/>
<text x="450.0" y="279.0" font-size="30" text-anchor="middle" font-family="Arial, sans-serif">💠</text>
<rect x="492.0" y="234.0" width="72" height="72" rx="10" fill="url(#cell-lien-minh)" stroke="#0AC8B9" stroke-opacity="0.35" stroke-width="1"/>
<text x="528.0" y="279.0" font-size="30" text-anchor="middle" font-family="Arial, sans-serif">⚡</text>
<rect x="570.0" y="234.0" width="72" height="72" rx="10" fill="url(#cell-lien-minh)" stroke="#0AC8B9" stroke-opacity="0.35" stroke-width="1"/>
<text x="606.0" y="279.0" font-size="30" text-anchor="middle" font-family="Arial, sans-serif">🔱</text>
<rect x="648.0" y="234.0" width="72" height="72" rx="10" fill="url(#cell-lien-minh)" stroke="#0AC8B9" stroke-opacity="0.35" stroke-width="1"/>
<text x="684.0" y="279.0" font-size="30" text-anchor="middle" font-family="Arial, sans-serif">⚔️</text>
<rect x="726.0" y="234.0" width="72" height="72" rx="10" fill="url(#cell-lien-minh)" stroke="#0AC8B9" stroke-opacity="0.35" stroke-width="1"/>
<text x="762.0" y="279.0" font-size="30" text-anchor="middle" font-family="Arial, sans-serif">⚡</text>
<rect x="804.0" y="234.0" width="72" height="72" rx="10" fill="url(#cell-lien-minh)" stroke="#0AC8B9" stroke-opacity="0.35" stroke-width="1"/>
<text x="840.0" y="279.0" font-size="30" text-anchor="middle" font-family="Arial, sans-serif">🌟</text>
<text x="450.0" y="330" font-size="13" fill="#8D93A6" text-anchor="middle" font-family="Arial, sans-serif" letter-spacing="1">LIÊN MINH HUYỀN THOẠI — MINH HOẠ BỘ SƯU TẬP TƯỚNG/SKIN</text>
</svg>